<svg xmlns="http://www.w3.org/2000/svg" width="242" height="68" viewBox="0 0 242 68"><path d="M72.9 23.9c2.5-2.5 5-3.4 8.1-3.4 5.9 0 9.3 3.4 9.3 10.2v15.8h-7.1V31.9c0-3.7-1.2-5.6-3.7-5.6-2.2 0-3.4.9-5.6 3.1v17.1h-7.1V25.7c-.3 0-2.2-.3-2.2-.3v-4l7.8-.3c.2 0 .5 1.8.5 2.8m61.8 2.4c-1.9 0-3.7.9-5.9 3.4v10.9c.9.3 2.5.9 4 .9 5 0 5.9-4 5.9-7.8.3-4.9-.9-7.4-4-7.4m-5.6-14.9v11.8c2.2-1.9 4.3-2.8 7.1-2.8 6.2 0 10.2 4.7 10.2 12.4 0 9-5 14.3-13.7 14.3-3.1 0-7.1-.6-10.6-1.6V16c-.3 0-2.5-.3-2.5-.3v-4l9.5-.3zM95.9 22c2.8-.9 6.2-1.6 9.3-1.6 7.1 0 10.9 3.1 10.9 9v12.7c.6 0 2.5.3 2.5.3v4l-7.8.3s-.3-1.2-.3-1.9c-2.2 1.9-4.7 2.8-7.5 2.8-5.6 0-9-3.1-9-8.1 0-5.6 4.3-8.4 12.7-8.4h2.5v-.9c0-2.8-.6-4-4.7-4-2.2 0-5 .6-7.1 1.6h-.6l-1.2-5.3.3-.5m4.9 17.1c0 1.9 1.2 3.1 3.4 3.1 1.9 0 3.1-.6 5-2.2v-4h-2.5c-5.2-.3-5.9 1.5-5.9 3.1" fill="#fff"/><path d="M37.8 6.8L28.5 18l-13-6.2c-.3 0-.6-.3-.9 0-.3 0-.3.3 0 .9l3 14.3-13 6.2c-.3 0-.6.3-.6.6s.3.6.6.6l13 6.5-3.1 14.3v.9h.9l13-6.2 9 11.5c.3.3.6.6.9.3.3 0 .3-.3.6-.6l3.4-14H57c.3 0 .6 0 .9-.3 0-.3 0-.6-.3-.9l-9-11.5L58 22.9c.3-.3.3-.6.3-.9 0-.3-.3-.3-.9-.3h-3.7c-.3 0-.6 0-.6.3L39.3 36.6H39v-.3c.3-.3 7.8-9.6 11.8-14.3v-.3c0-.3 0-.3-.3-.3h-4.7c-.3 0-.9.3-.9.6-2.2 2.5-13.4 14.3-13.7 14.3H31V36l11.5-14c.3-.3.3-.6.3-.9 0 0-3.1-14-3.1-14.3 0-.3-.3-.6-.6-.6-1 .3-1.3.3-1.3.6z" fill="#a91f23"/><path d="M13.3 35.3c-3.4 0-6.5-.6-9.3-1.9 0 0 .3 0 .3-.3l13-6.2-3.1-14.3v-.9h.9l13 6.2 9.3-11.2c.3-.3.6-.3.6-.3 0 1.2.3 2.2.3 3.4.4 14.1-11.1 25.5-25 25.5zm35.4-12.4c.3-.3.6-.9.9-1.2h-4.3c-.3 0-.6.3-.9.3 0 .6 0 1.6.6 1.9.6.9 2.4.3 3.7-1zm4.3-1.5c-.3 0-.6 0-.6.3l-.3.3c0 .6.3.9.6 1.2.9.9 2.8.3 3.7-.9.3-.3.3-.6.6-.9h-4c0 .3 0 0 0 0z" fill="#ec2024"/><radialGradient id="nab-logo_svg__a" cx="37.87" cy="53.63" r="45.24" gradientUnits="userSpaceOnUse"><stop offset=".49" stop-color="#de1f26"/><stop offset=".74" stop-color="#e84b4f"/><stop offset="1" stop-color="#f27778"/></radialGradient><path d="M55.5 22.6H53c-.6 0-.9.3-1.2.6-4.7 5-12.4 13-12.7 13-.9.9-1.6.3-.6-.6.3-.3 6.5-7.8 10.2-12.4 0-.3.3-.6 0-.6H45c-.3 0-.6 0-.9.3-4.7 5-12.7 13.4-13 13.4-.9.9-1.6.3-.6-.6.3-.3 7.1-8.7 10.6-13.4.3-.3.3-.6.3-1.2l-3-12.5c0-.3-.3-.6-.6 0l-8.4 10.2c-.3.3-.9.6-1.2.3l-11.8-5.9c-.3 0-.6 0-.6.3l2.8 13c0 .3 0 .9-.6 1.2L6.1 33.5c-.3 0-.3.6 0 .6L17.9 40c.3 0 .6.6.6 1.2L15.4 54c0 .3 0 .6.6.3l12.1-5.6c.3 0 .9 0 1.2.3l8.1 10.2c.3.3.6.3.6 0l3.1-12.7c0-.3.6-.6.9-.6h13c.3 0 .6-.3.3-.6l-8.1-10.6c-.3-.3-.3-.9 0-1.2l8.4-10.2c.5-.4.2-.7-.1-.7z" fill="url(#nab-logo_svg__a)"/><path d="M237 0h1v68h-1zm-40.6 22.9v-5.8c0-1.4-.2-2.1-1.2-2.1-.8 0-1.2.4-1.8 1.1v6.7h-3.3V17c0-1.4-.2-2.1-1.2-2.1-.8 0-1.2.4-1.8 1.1v6.7h-3.3v-9.9h2.5l.3 1.1c.9-1 1.8-1.4 3.2-1.4 1.5 0 2.5.5 3 1.5 1-1 1.8-1.5 3.3-1.5 2.5 0 3.6 1.5 3.6 4V23l-3.3-.1zm9.6.4c-3.6 0-5.3-2-5.3-5.2 0-3.5 1.9-5.6 5.5-5.6s5.3 2 5.3 5.3-2 5.5-5.5 5.5zm0-8.3c-1.4 0-2 1.1-2 2.8 0 2.1.6 2.9 2.1 2.9 1.4 0 1.9-1.1 1.9-2.7.1-2.1-.6-3-2-3zm12.6.7c-.2-.1-.7-.1-1-.1-.6 0-1.1.5-1.8 1.4v6h-3.3V12.8h2.6l.3 1.5c.9-1.2 1.5-1.8 2.5-1.8.5 0 .8 0 1.1.1l-.4 3.1zm10 3h-6.4c0 1.3.7 2 2.4 2 1.1 0 2.4-.1 3.5-.4l.3 2.4c-1.3.4-2.7.6-4.2.6-3.6 0-5.3-1.6-5.3-5.3 0-3.5 1.8-5.6 5.2-5.6 3.2 0 4.6 1.7 4.6 4.9 0 .4-.1.9-.1 1.4zm-4.7-4c-1.2 0-1.7.9-1.7 2h3.3c0-1.2-.4-2-1.6-2zm-41.5 40.6v-5.8c0-1.4-.2-2.1-1.2-2.1-.8 0-1.2.4-1.8 1.1v6.7h-3.3v-5.8c0-1.4-.2-2.1-1.2-2.1-.8 0-1.2.4-1.8 1.1v6.7h-3.3v-10h2.5l.3 1.1c.9-1 1.8-1.4 3.2-1.4 1.5 0 2.5.5 3 1.5 1-1 1.8-1.5 3.3-1.5 2.5 0 3.6 1.5 3.6 4v6.5h-3.3zm9.5.3c-3.6 0-5.3-2-5.3-5.2 0-3.5 1.9-5.6 5.5-5.6s5.3 2 5.3 5.3-1.9 5.5-5.5 5.5zm.1-8.2c-1.4 0-2 1.1-2 2.8 0 2.1.6 2.9 2.1 2.9 1.4 0 1.9-1.1 1.9-2.7 0-2.1-.6-3-2-3zm12.9 7.9v-5.8c0-1.4-.3-2.1-1.3-2.1-.8 0-1.3.4-1.9 1.1v6.7h-3.3V45.1h2.5l.3 1.1c1-1 1.9-1.4 3.3-1.4 2.5 0 3.7 1.5 3.7 4v6.5h-3.3zm14-4.3h-6.4c0 1.3.7 2 2.4 2 1.1 0 2.4-.1 3.5-.4l.3 2.4c-1.3.4-2.7.6-4.2.6-3.6 0-5.3-1.6-5.3-5.3 0-3.5 1.8-5.6 5.2-5.6 3.2 0 4.6 1.7 4.6 4.9-.1.4-.1 1-.1 1.4zm-4.7-4c-1.2 0-1.7.9-1.7 2h3.3c0-1.2-.4-2-1.6-2zm11.8 8.3c-1.6 3.4-3.3 4.2-5.1 4.2-.6 0-1.1-.1-1.5-.3l.1-2.4h1.3c.7 0 1.1-.4 1.7-1.5-1.3-2.8-2.6-6.6-3.3-10.2h3.4c.5 2.4 1.1 4.8 1.8 6.9.6-2.1 1.2-4.7 1.6-6.9h3.2c-1.1 4.5-2.1 7.9-3.2 10.2zm-32-14.9c-1.7 0-2.9-.8-2.9-3v-5h-1.4v-2.5h1.3l.8-3.2h2.5v3.2h2v2.5h-2v3.7c0 1.3.3 1.6 1.2 1.6h.8V40c-.5.3-1.5.4-2.3.4zm20.9-.3l-.2-.9c-.8.8-1.8 1.2-3.1 1.2-2 0-3.6-1-3.6-3.2 0-2.5 1.9-3.4 5.5-3.4h.7v-.4c0-.9-.4-1.4-1.8-1.4-1 0-2.1.3-3 .6l-.5-2.3c1.1-.4 2.6-.7 3.9-.7 3.2 0 4.7 1.1 4.7 3.7v6.8h-2.6zm-.7-4.3h-.8c-1.6 0-2.2.4-2.2 1.3 0 .6.4 1.1 1.2 1.1.7 0 1.3-.4 1.7-.9l.1-1.5zm11.2 4.3v-5.8c0-1.4-.3-2.1-1.3-2.1-.8 0-1.3.4-1.9 1.1V40h-3.3V29.9h2.5l.3 1.1c1-1 1.9-1.4 3.3-1.4 2.5 0 3.7 1.5 3.7 4v6.5h-3.3zm-21.9-10.5c-1.3 0-2.2.5-2.9 1.1V26h-3.3v14.1h3.3v-6.7c.7-.7 1.1-1.1 1.9-1.1 1 0 1.3.7 1.3 2.1v5.8h3.3v-6.5c0-2.6-1.2-4.1-3.6-4.1z" fill="#fff"/></svg>